<svg xmlns="http://www.w3.org/2000/svg" width="339.103" height="144.192" viewBox="0 0 339.103 144.192">
  <g id="Group_140" data-name="Group 140" transform="translate(-153.222 -4087)">
    <g id="Group_135" data-name="Group 135" transform="translate(245.761 4142.087)">
      <g id="Group_111" data-name="Group 111" transform="translate(0)">
        <path id="Path_1038" data-name="Path 1038" d="M391.3,274.509V249.757h13.051v2.7H394.241v7.1h10.108v2.735H394.241v12.22Z" transform="translate(-391.298 -242.591)" fill="#b32248"/>
        <path id="Path_1039" data-name="Path 1039" d="M412.8,249.757h2.977v15.405q0,3.756,1.6,5.509t5.013,1.76c2.279,0,3.947-.589,5.014-1.76s1.6-3.006,1.6-5.509V249.757h2.977v15.405q0,5.02-2.389,7.512t-7.206,2.492q-4.8,0-7.195-2.492t-2.389-7.512Z" transform="translate(-395.361 -242.591)" fill="#b32248"/>
        <path id="Path_1040" data-name="Path 1040" d="M443.67,274.283V248.562l18.105,19.773v-18.8h2.8v25.721l-18.105-19.565v18.6Z" transform="translate(-401.194 -242.365)" fill="#b32248"/>
        <path id="Path_1041" data-name="Path 1041" d="M476.742,274.509V249.757H481.5a35.6,35.6,0,0,1,7.426.53,10.133,10.133,0,0,1,3.779,1.783,10.4,10.4,0,0,1,3.231,4.195,16.3,16.3,0,0,1,.006,11.742,10.234,10.234,0,0,1-6.929,5.971,28.456,28.456,0,0,1-6.451.531h-5.816Zm2.977-2.769h1.875a33.348,33.348,0,0,0,6.318-.4,6.9,6.9,0,0,0,2.925-1.362,7.943,7.943,0,0,0,2.313-3.266,13.67,13.67,0,0,0,.012-9.162,8.077,8.077,0,0,0-2.325-3.254,6.976,6.976,0,0,0-2.966-1.391,32.082,32.082,0,0,0-6.278-.415h-1.875Z" transform="translate(-407.443 -242.591)" fill="#b32248"/>
        <path id="Path_1042" data-name="Path 1042" d="M513.975,248.562l11.257,25.721h-3.191l-3.213-7.582h-9.665l-3.213,7.582h-3.185Zm0,6.508-3.935,9.1h7.875Z" transform="translate(-412.36 -242.365)" fill="#b32248"/>
        <path id="Path_1043" data-name="Path 1043" d="M540.732,281.572v-1.7c.888.2,1.7.363,2.417.479a10.825,10.825,0,0,0,1.737.179,2.768,2.768,0,0,0,1.529-.346,1.173,1.173,0,0,0,.513-1.039,1.224,1.224,0,0,0-.548-1.1,3.208,3.208,0,0,0-1.708-.352c-.225,0-.4,0-.525.006s-.248.011-.369.011v-3.341h1.281V276.1h.491a4.367,4.367,0,0,1,2.8.779,2.75,2.75,0,0,1,.964,2.279,2.778,2.778,0,0,1-1.079,2.354,5.132,5.132,0,0,1-3.144.819,11.166,11.166,0,0,1-1.956-.2,23.1,23.1,0,0,1-2.406-.565m12.7-26.032a11.923,11.923,0,0,0-3.784-2.851,10.534,10.534,0,0,0-4.449-.923,9.67,9.67,0,0,0-3.831.8,9.971,9.971,0,0,0-5.367,5.5,10.963,10.963,0,0,0-.709,4.016,11.317,11.317,0,0,0,.421,3.179,9.124,9.124,0,0,0,1.269,2.672,10.311,10.311,0,0,0,3.658,3.254,10.265,10.265,0,0,0,9.087.161,11.412,11.412,0,0,0,3.7-2.925v3.906a14.063,14.063,0,0,1-8.355,2.7,12.787,12.787,0,0,1-3.818-.582,12.946,12.946,0,0,1-3.486-1.7,12.574,12.574,0,0,1-5.561-10.628,13.556,13.556,0,0,1,.958-5.2,12.422,12.422,0,0,1,2.913-4.252,12.673,12.673,0,0,1,4.195-2.729,14,14,0,0,1,9.179-.254,15.011,15.011,0,0,1,3.975,2.014Z" transform="translate(-417.924 -242.453)" fill="#b32248"/>
        <path id="Path_1044" data-name="Path 1044" d="M576.595,240.921a5.216,5.216,0,0,1-1.188,2.631,2.821,2.821,0,0,1-2.14.906,3.458,3.458,0,0,1-.508-.046q-.286-.051-.607-.139l-1.62-.438c-.151-.046-.294-.081-.433-.109a1.938,1.938,0,0,0-.4-.046,1.435,1.435,0,0,0-.9.3,2.033,2.033,0,0,0-.617.854h-1.488a4.981,4.981,0,0,1,1.148-2.573,2.782,2.782,0,0,1,2.111-.9,3.943,3.943,0,0,1,.543.035,2.494,2.494,0,0,1,.456.1l1.656.49c.26.07.449.11.571.133a1.854,1.854,0,0,0,.341.035,1.509,1.509,0,0,0,.957-.306,2.058,2.058,0,0,0,.629-.929Zm-4.99,6.2,11.257,25.721H579.67l-3.213-7.582h-9.664l-3.213,7.582h-3.185Zm0,6.508-3.935,9.1h7.875Z" transform="translate(-423.249 -240.921)" fill="#b32248"/>
        <path id="Path_1045" data-name="Path 1045" d="M616.293,262.056a12.867,12.867,0,0,1-.981,5,12.432,12.432,0,0,1-2.856,4.177,13.433,13.433,0,0,1-18.74,0,12.579,12.579,0,0,1-3.871-9.18,12.881,12.881,0,0,1,.986-5.014,12.726,12.726,0,0,1,2.885-4.2,13.08,13.08,0,0,1,4.3-2.787,13.44,13.44,0,0,1,5.054-.981,13.591,13.591,0,0,1,5.083.981,13.1,13.1,0,0,1,4.3,2.787,12.454,12.454,0,0,1,2.856,4.183,13.015,13.015,0,0,1,.981,5.032m-13.223,10.212a9.851,9.851,0,0,0,3.86-.767,10.273,10.273,0,0,0,3.306-2.244,10.016,10.016,0,0,0,2.977-7.2,10.32,10.32,0,0,0-.768-3.958,10.084,10.084,0,0,0-9.375-6.289,10.135,10.135,0,0,0-3.906.762,9.669,9.669,0,0,0-3.26,2.216,10.178,10.178,0,0,0-2.215,3.329,10.312,10.312,0,0,0-.762,3.941,10.121,10.121,0,0,0,.749,3.889,10.558,10.558,0,0,0,5.528,5.561A9.913,9.913,0,0,0,603.069,272.268Z" transform="translate(-428.813 -242.461)" fill="#b32248"/>
      </g>
      <g id="Group_112" data-name="Group 112" transform="translate(0 45.756)">
        <path id="Path_1046" data-name="Path 1046" d="M393.2,305.387h.985a6.567,6.567,0,0,0,3.37-.588,2.29,2.29,0,0,0,.867-2.049,2.521,2.521,0,0,0-.89-2.2,6.171,6.171,0,0,0-3.347-.638H393.2Zm0,1.764V314.5h-1.9V298.127h3.432a13.456,13.456,0,0,1,2.653.191,4.113,4.113,0,0,1,1.477.627,3.691,3.691,0,0,1,1.225,1.53,5.492,5.492,0,0,1,0,4.317,3.694,3.694,0,0,1-1.225,1.53,4.006,4.006,0,0,1-1.47.638,13.41,13.41,0,0,1-2.66.191H393.2Z" transform="translate(-391.298 -297.486)" fill="#00005a"/>
        <path id="Path_1047" data-name="Path 1047" d="M408.742,297.337l7.447,17.015h-2.111l-2.126-5.015H405.56l-2.127,5.015h-2.107Zm0,4.305-2.6,6.023h5.21Z" transform="translate(-393.193 -297.337)" fill="#00005a"/>
        <path id="Path_1048" data-name="Path 1048" d="M421.741,314.5V298.127h3.145a23.445,23.445,0,0,1,4.913.352,6.69,6.69,0,0,1,2.5,1.179,6.88,6.88,0,0,1,2.138,2.775,10.784,10.784,0,0,1,0,7.767,6.776,6.776,0,0,1-4.584,3.951,18.868,18.868,0,0,1-4.267.35h-3.848Zm1.97-1.832h1.24a22.112,22.112,0,0,0,4.18-.263,4.552,4.552,0,0,0,1.934-.9,5.245,5.245,0,0,0,1.53-2.16,9.042,9.042,0,0,0,.008-6.062,5.351,5.351,0,0,0-1.539-2.153,4.614,4.614,0,0,0-1.962-.92,21.181,21.181,0,0,0-4.153-.275h-1.24Z" transform="translate(-397.05 -297.486)" fill="#00005a"/>
        <path id="Path_1049" data-name="Path 1049" d="M444.118,299.776v5.474H445.6a5.449,5.449,0,0,0,3.057-.588,2.413,2.413,0,0,0,.771-2.049,2.67,2.67,0,0,0-.794-2.206,5.171,5.171,0,0,0-3.034-.63Zm-1.9,14.725V298.127h3.848a11.38,11.38,0,0,1,2.409.183,3.628,3.628,0,0,1,1.35.634,3.692,3.692,0,0,1,1.127,1.526,5.361,5.361,0,0,1,.4,2.118,3.973,3.973,0,0,1-1.122,3.057,4.666,4.666,0,0,1-3.294,1.046h-.347l6.252,7.809H450.37l-5.977-7.809h-.275V314.5Z" transform="translate(-400.919 -297.486)" fill="#00005a"/>
        <path id="Path_1050" data-name="Path 1050" d="M457.329,314.5V298.127h8.634v1.786h-6.687v4.695h6.687v1.809h-6.687v6.275h6.687V314.5Z" transform="translate(-403.774 -297.486)" fill="#00005a"/>
        <path id="Path_1051" data-name="Path 1051" d="M480.37,314.5V298.127h1.947v14.519H488.5V314.5Z" transform="translate(-408.128 -297.486)" fill="#00005a"/>
        <path id="Path_1052" data-name="Path 1052" d="M493.245,314.5V298.127h8.634v1.786h-6.687v4.695h6.687v1.809h-6.687v6.275h6.687V314.5Z" transform="translate(-410.561 -297.486)" fill="#00005a"/>
        <path id="Path_1053" data-name="Path 1053" d="M524.521,306.263a8.522,8.522,0,0,1-.649,3.309,8.223,8.223,0,0,1-1.89,2.764,8.886,8.886,0,0,1-12.4,0,8.327,8.327,0,0,1-2.561-6.073,8.519,8.519,0,0,1,.653-3.316,8.417,8.417,0,0,1,1.908-2.779,8.658,8.658,0,0,1,2.844-1.844,8.894,8.894,0,0,1,3.344-.648,8.992,8.992,0,0,1,3.363.648,8.671,8.671,0,0,1,2.847,1.844,8.236,8.236,0,0,1,1.89,2.767,8.615,8.615,0,0,1,.649,3.328m-8.748,6.756a6.512,6.512,0,0,0,2.553-.508,6.8,6.8,0,0,0,2.187-1.485,6.625,6.625,0,0,0,1.969-4.763,6.833,6.833,0,0,0-.508-2.618,6.741,6.741,0,0,0-8.786-3.656,6.393,6.393,0,0,0-2.157,1.466,6.724,6.724,0,0,0-1.466,2.2,6.808,6.808,0,0,0-.5,2.607,6.689,6.689,0,0,0,.5,2.573,6.994,6.994,0,0,0,3.656,3.68A6.565,6.565,0,0,0,515.773,313.019Z" transform="translate(-413.164 -297.401)" fill="#00005a"/>
        <path id="Path_1054" data-name="Path 1054" d="M532.527,314.352V297.337l11.977,13.08V297.978h1.855v17.016l-11.977-12.943v12.3Z" transform="translate(-417.983 -297.337)" fill="#00005a"/>
        <path id="Path_1055" data-name="Path 1055" d="M554.405,314.5V298.127h8.634v1.786h-6.687v4.695h6.687v1.809h-6.687v6.275h6.687V314.5Z" transform="translate(-422.117 -297.486)" fill="#00005a"/>
        <path id="Path_1056" data-name="Path 1056" d="M569.116,314.5V298.127h1.947v14.519h6.183V314.5Z" transform="translate(-424.897 -297.486)" fill="#00005a"/>
        <path id="Path_1057" data-name="Path 1057" d="M590.322,314.5V298.127h8.634v1.786h-6.687v4.695h6.687v1.809h-6.687V314.5Z" transform="translate(-428.903 -297.486)" fill="#00005a"/>
        <path id="Path_1058" data-name="Path 1058" d="M606.533,299.776v5.474h1.485a5.449,5.449,0,0,0,3.057-.588,2.413,2.413,0,0,0,.771-2.049,2.67,2.67,0,0,0-.794-2.206,5.171,5.171,0,0,0-3.034-.63Zm-1.9,14.725V298.127h3.847a11.381,11.381,0,0,1,2.409.183,3.632,3.632,0,0,1,1.351.634,3.7,3.7,0,0,1,1.126,1.526,5.361,5.361,0,0,1,.4,2.118,3.973,3.973,0,0,1-1.122,3.057,4.666,4.666,0,0,1-3.294,1.046h-.347l6.252,7.809h-2.473l-5.977-7.809h-.275V314.5Z" transform="translate(-431.607 -297.486)" fill="#00005a"/>
        <path id="Path_1059" data-name="Path 1059" d="M624.392,297.337l7.447,17.015h-2.11l-2.127-5.015H621.21l-2.127,5.015h-2.106Zm0,4.305-2.6,6.023H627Z" transform="translate(-433.94 -297.337)" fill="#00005a"/>
        <path id="Path_1060" data-name="Path 1060" d="M637.391,314.352V297.337l11.977,13.08V297.978h1.855v17.016l-11.977-12.943v12.3Z" transform="translate(-437.797 -297.337)" fill="#00005a"/>
        <path id="Path_1061" data-name="Path 1061" d="M672.376,301.953a7.889,7.889,0,0,0-2.5-1.886,6.975,6.975,0,0,0-2.943-.611,6.414,6.414,0,0,0-2.534.526,6.6,6.6,0,0,0-3.55,3.642,7.242,7.242,0,0,0-.47,2.656,7.487,7.487,0,0,0,.279,2.1,6.013,6.013,0,0,0,.839,1.766,6.837,6.837,0,0,0,2.419,2.153,6.8,6.8,0,0,0,6.012.107,7.536,7.536,0,0,0,2.45-1.936v2.584a9.312,9.312,0,0,1-5.526,1.787,8.438,8.438,0,0,1-2.527-.386,8.526,8.526,0,0,1-2.3-1.126,8.316,8.316,0,0,1-3.68-7.03,8.962,8.962,0,0,1,.634-3.439,8.216,8.216,0,0,1,1.927-2.814,8.388,8.388,0,0,1,2.775-1.805,9.263,9.263,0,0,1,6.072-.168,9.92,9.92,0,0,1,2.63,1.333Z" transform="translate(-441.755 -297.395)" fill="#00005a"/>
        <path id="Path_1062" data-name="Path 1062" d="M684.4,297.337l7.446,17.015h-2.11l-2.127-5.015h-6.393l-2.127,5.015h-2.106Zm0,4.305-2.6,6.023H687Z" transform="translate(-445.277 -297.337)" fill="#00005a"/>
      </g>
    </g>
    <g id="Group_136" data-name="Group 136" transform="translate(153.222 4087)">
      <g id="Group_117" data-name="Group 117" transform="translate(0 0)">
        <rect id="Rectangle_94" data-name="Rectangle 94" width="62.353" height="124.706" fill="#00005a"/>
        <path id="Path_1072" data-name="Path 1072" d="M292.453,257.6c-2.185,2.567-1.354,5.879-2.043,8.48-1.157,2.359-.763,3.032-.764,4.444.22,2.071-1.638,7.286-2.678,10.809-.539,1.93.321,3.306,2.363,3.085l2.161-.8c.112,3.643-2.188,5.81,1.365,5.54-.247,2.02-.135,2.917,2.487,2.41a17.039,17.039,0,0,0,.316,3.692c1.293,3.021,3.878,3.909,7.057,1.352a7.345,7.345,0,0,0,6.067-.185c1.339,1.809-2.771,4.153,2,7.364,1.383.933,9.012-3.75,12.372-6.4,3.327-2.622,6.714-5.89,8.458-9.137-.561-1.353-1.946-1.722-2.869-2.582-.286-.266-.729-.878-.255-1.277,10.384-12.184,3.49-29.255-8.365-35.625-7.118-3.826-19.06-4.26-27.673,8.829" transform="translate(-279.017 -186.874)" fill="#fff" fill-rule="evenodd"/>
        <rect id="Rectangle_95" data-name="Rectangle 95" width="62.353" height="7.794" transform="translate(0 128.604)" fill="#b32248"/>
        <rect id="Rectangle_96" data-name="Rectangle 96" width="62.353" height="3.897" transform="translate(0 140.295)" fill="#d8c4a7"/>
      </g>
      <g id="Group_118" data-name="Group 118" transform="translate(12.645 13.164)">
        <path id="Path_1073" data-name="Path 1073" d="M304.307,209.511v-4.072h-9.634l11.694-16.207h.918v13.931h2.444v2.276h-2.444v4.072Zm.084-13.562-5.122,7.213h5.037v-5.224c0-.277,0-.581.019-.917S304.363,196.324,304.392,195.949Z" transform="translate(-293.147 -189.231)" fill="#fff"/>
        <path id="Path_1074" data-name="Path 1074" d="M323.857,207.236a3.222,3.222,0,0,0,3.01-1.915,16.585,16.585,0,0,0,.015-11.366,3.127,3.127,0,0,0-2.9-1.942,3.237,3.237,0,0,0-3,1.934,16.33,16.33,0,0,0,0,11.329,3.14,3.14,0,0,0,2.888,1.961m7.279-7.392a12.733,12.733,0,0,1-1.928,7.495,6.532,6.532,0,0,1-10.609-.028q-1.9-2.739-1.9-7.686,0-4.909,1.919-7.649a6.143,6.143,0,0,1,5.333-2.744,6.058,6.058,0,0,1,5.322,2.748Q331.134,194.732,331.136,199.844Z" transform="translate(-297.309 -189.231)" fill="#fff"/>
        <path id="Path_1075" data-name="Path 1075" d="M296.927,219.839l4.151,9.486H299.9l-1.186-2.8h-3.564l-1.185,2.8h-1.175Zm0,2.4-1.451,3.358h2.9Z" transform="translate(-292.792 -195.014)" fill="#fff"/>
        <path id="Path_1076" data-name="Path 1076" d="M304.173,229.325v-9.486l6.677,7.292V220.2h1.034v9.486l-6.677-7.216v6.858Z" transform="translate(-294.942 -195.014)" fill="#fff"/>
        <path id="Path_1077" data-name="Path 1077" d="M325.6,224.816a4.74,4.74,0,0,1-.362,1.845,4.577,4.577,0,0,1-1.054,1.54,4.955,4.955,0,0,1-6.911,0,4.635,4.635,0,0,1-1.427-3.385,4.646,4.646,0,0,1,1.427-3.4,4.836,4.836,0,0,1,1.586-1.028,4.957,4.957,0,0,1,1.864-.362,5.011,5.011,0,0,1,1.874.362,4.843,4.843,0,0,1,1.587,1.028,4.587,4.587,0,0,1,1.054,1.543,4.79,4.79,0,0,1,.362,1.856m-4.877,3.767a3.639,3.639,0,0,0,1.423-.283,3.8,3.8,0,0,0,1.219-.828,3.69,3.69,0,0,0,1.1-2.655,3.8,3.8,0,0,0-.283-1.46,3.718,3.718,0,0,0-3.458-2.319,3.731,3.731,0,0,0-1.44.281,3.586,3.586,0,0,0-1.2.817,3.754,3.754,0,0,0-1.1,2.681,3.715,3.715,0,0,0,.277,1.434A3.889,3.889,0,0,0,319.3,228.3,3.656,3.656,0,0,0,320.728,228.582Z" transform="translate(-297.149 -195.05)" fill="#fff"/>
        <path id="Path_1078" data-name="Path 1078" d="M333.252,224.291a3.092,3.092,0,0,1,1.342,1.009,2.48,2.48,0,0,1,.453,1.489,2.688,2.688,0,0,1-.8,2.028,3.283,3.283,0,0,1-3.932.219,2.732,2.732,0,0,1-.985-1.566l.985-.487a2.461,2.461,0,0,0,.659,1.258,1.616,1.616,0,0,0,1.149.427,1.87,1.87,0,0,0,1.323-.47,1.6,1.6,0,0,0,.5-1.225,1.675,1.675,0,0,0-.353-1.064,2.665,2.665,0,0,0-1.062-.764l-1.111-.474a3.125,3.125,0,0,1-1.355-.979,2.325,2.325,0,0,1-.447-1.434,2.044,2.044,0,0,1,.723-1.608,2.7,2.7,0,0,1,1.847-.637,2.8,2.8,0,0,1,1.423.35,2.354,2.354,0,0,1,.938,1.032l-.9.573a2.327,2.327,0,0,0-.685-.788,1.5,1.5,0,0,0-.86-.26,1.389,1.389,0,0,0-1,.375,1.342,1.342,0,0,0-.089,1.793,2.473,2.473,0,0,0,.928.63Z" transform="translate(-299.695 -195.047)" fill="#fff"/>
      </g>
    </g>
  </g>
</svg>
